name GIL04_slow3EmgEnv.mot
datacolumns 51
datarows 6
range 0.40925926 0.41388890
endheader
                time	   rect_fem_l_emgRec	   rect_fem_l_emgEnv	   rect_fem_l_emgAve	   rect_fem_l_emgSDp	   rect_fem_l_emgSDm	   rect_fem_r_emgRec	   rect_fem_r_emgEnv	   rect_fem_r_emgAve	   rect_fem_r_emgSDp	   rect_fem_r_emgSDm	   med_hams_l_emgRec	   med_hams_l_emgEnv	   med_hams_l_emgAve	   med_hams_l_emgSDp	   med_hams_l_emgSDm	   med_hams_r_emgRec	   med_hams_r_emgEnv	   med_hams_r_emgAve	   med_hams_r_emgSDp	   med_hams_r_emgSDm	   lat_hams_l_emgRec	   lat_hams_l_emgEnv	   lat_hams_l_emgAve	   lat_hams_l_emgSDp	   lat_hams_l_emgSDm	   lat_hams_r_emgRec	   lat_hams_r_emgEnv	   lat_hams_r_emgAve	   lat_hams_r_emgSDp	   lat_hams_r_emgSDm	    tib_ant_l_emgRec	    tib_ant_l_emgEnv	    tib_ant_l_emgAve	    tib_ant_l_emgSDp	    tib_ant_l_emgSDm	    tib_ant_r_emgRec	    tib_ant_r_emgEnv	    tib_ant_r_emgAve	    tib_ant_r_emgSDp	    tib_ant_r_emgSDm	    gas_sol_l_emgRec	    gas_sol_l_emgEnv	    gas_sol_l_emgAve	    gas_sol_l_emgSDp	    gas_sol_l_emgSDm	    gas_sol_r_emgRec	    gas_sol_r_emgEnv	    gas_sol_r_emgAve	    gas_sol_r_emgSDp	    gas_sol_r_emgSDm	
          0.40925926	          0.15924554	          0.59439666	          0.22868198	          0.47375642	         -0.01639245	          0.02076932	          0.01339874	          0.02070176	          0.03248889	          0.00891463	          0.00642717	          0.01843185	         -0.00572206	          0.02443323	         -0.03587736	          0.05077707	          0.06622966	          0.04607663	          0.08406378	          0.00808949	          0.00246121	          0.02064804	          0.05862521	          0.08297806	          0.03427235	          0.11743033	          0.32844162	          0.15393984	          0.34600057	         -0.03812088	          0.01713165	          0.30009317	          0.22084886	          0.30411918	          0.13757853	          0.04110948	          0.05617925	          0.05837295	          0.06990271	          0.04684320	          0.03642952	          0.04366382	          0.02305261	          0.03563175	          0.01047348	          0.47466278	          0.62859074	          0.50623178	          0.55803426	          0.45442931	
          0.41018519	          0.29399752	          0.59704969	          0.22989750	          0.47667892	         -0.01688392	          0.00711700	          0.01331016	          0.02074373	          0.03249693	          0.00899054	          0.00940299	          0.01806660	         -0.00536180	          0.02544861	         -0.03617220	          0.01757270	          0.06723637	          0.04661350	          0.08536728	          0.00785973	          0.00440184	          0.02101992	          0.06070280	          0.08568751	          0.03571809	          0.09589910	          0.33435900	          0.15609501	          0.35137211	         -0.03918208	          0.02947380	          0.30045797	          0.22001384	          0.30346093	          0.13656675	          0.02840635	          0.05502210	          0.05796617	          0.06950363	          0.04642871	          0.02100884	          0.04369265	          0.02285015	          0.03533533	          0.01036496	          0.29785869	          0.62862212	          0.50555646	          0.55575866	          0.45535427	
          0.41111112	          0.54213088	          0.59908304	          0.23110610	          0.47956727	         -0.01735507	          0.00097483	          0.01322148	          0.02079519	          0.03251013	          0.00908024	          0.01031060	          0.01771287	         -0.00498075	          0.02649020	         -0.03645169	          0.00203282	          0.06823265	          0.04715058	          0.08667240	          0.00762876	          0.00199303	          0.02139388	          0.06281483	          0.08844635	          0.03718331	          0.08953200	          0.34019053	          0.15826121	          0.35676429	         -0.04024187	          0.07230822	          0.30062096	          0.21921374	          0.30284827	          0.13557921	          0.00920119	          0.05385032	          0.05756154	          0.06910865	          0.04601444	          0.00621739	          0.04370694	          0.02265516	          0.03504952	          0.01026080	          0.30429239	          0.62855460	          0.50488997	          0.55350789	          0.45627204	
          0.41203704	          0.63340179	          0.60048941	          0.23230775	          0.48242114	         -0.01780565	          0.00852491	          0.01313274	          0.02085601	          0.03252845	          0.00918357	          0.00655197	          0.01737093	         -0.00457881	          0.02755799	         -0.03671562	          0.02023207	          0.06921716	          0.04768774	          0.08797871	          0.00739676	          0.00998383	          0.02176924	          0.06496123	          0.09125448	          0.03866798	          0.15354345	          0.34592871	          0.16043761	          0.36217514	         -0.04129991	          0.01075130	          0.30058137	          0.21844858	          0.30228122	          0.13461594	          0.00060970	          0.05266639	          0.05715925	          0.06871796	          0.04560054	          0.00431985	          0.04370652	          0.02246769	          0.03477438	          0.01016100	          0.17946324	          0.62838542	          0.50423253	          0.55128270	          0.45718236	
          0.41296297	          0.39242149	          0.60126344	          0.23350221	          0.48523995	         -0.01823553	          0.01858410	          0.01304405	          0.02092608	          0.03255182	          0.00930035	          0.00941764	          0.01704104	         -0.00415585	          0.02865205	         -0.03696376	          0.08245109	          0.07018863	          0.04822482	          0.08928572	          0.00716392	          0.01292129	          0.02214534	          0.06714182	          0.09411168	          0.04017195	          0.23165285	          0.35156628	          0.16262354	          0.36760303	         -0.04235595	          0.05353949	          0.30033897	          0.21771863	          0.30176003	          0.13367723	          0.00661386	          0.05147285	          0.05675952	          0.06833181	          0.04518723	          0.01892481	          0.04369128	          0.02228779	          0.03451001	          0.01006558	          0.13162987	          0.62811199	          0.50358385	          0.54908332	          0.45808438	
          0.41388890	          0.09623900	          0.60140166	          0.23468937	          0.48802342	         -0.01864468	          0.00138837	          0.01295553	          0.02100527	          0.03258017	          0.00943038	          0.01051415	          0.01672342	         -0.00371178	          0.02977237	         -0.03719592	          0.09149741	          0.07114583	          0.04876170	          0.09059296	          0.00693045	          0.01086809	          0.02252147	          0.06935642	          0.09701776	          0.04169508	          0.16550564	          0.35709625	          0.16481830	          0.37304617	         -0.04340957	          0.08456096	          0.29989409	          0.21702395	          0.30128475	          0.13276316	          0.01375428	          0.05027228	          0.05636253	          0.06795040	          0.04477466	          0.03389759	          0.04366110	          0.02211550	          0.03425647	          0.00997453	          0.25553451	          0.62773185	          0.50294387	          0.54691019	          0.45897756	
